# xmcd CD database file
#
# Track frame offsets:
#	150
#	11458
#	20653
#	31420
#	46285
#	55698
#	68295
#	87033
#	97978
#	114605
#	133468
#	145540
#	156105
#	164125
#	182085
#	193555
#	203648
#	215655
#	231963
#	244428
#	255988
#
# Disc length: 3620 seconds
#
# Revision: 2
# Processed by: cddbd v1.5.2PL0 Copyright (c) Steve Scherf et al.
# Submitted via: CDex 1.40Beta8
#
DISCID=200e2215
DTITLE=Various Artist - Songs Of The Wild West
DYEAR=1987
DGENRE=Country
TTITLE0=Done Laid Around (The Cow Grass Band)
TTITLE1=Boile´m Cabbage Down (The Cow Grass Band)
TTITLE2=Charlie´s Shoes (Billy Walker)
TTITLE3=All That Country Lovin´ (Sue Martin)
TTITLE4=She´ll Be Coming Round The Mountain (Texas V)
TTITLE5=Oklahoma Hills (Earl Ricks)
TTITLE6=Fine Country Singin´ (Earl Ricks)
TTITLE7=Columbus Steckade (The Wunty All-Stars)
TTITLE8=Careless Love (Spencer McBrown)
TTITLE9=Rose Of Cimarron (Dolly Merle)
TTITLE10=2´39 (The cow Grass Band)
TTITLE11=Rose Of Tralee (Lisa Allen)
TTITLE12=Cindy (Lewis Morgan)
TTITLE13=Nashville (David Houston)
TTITLE14=Willow Tree (The Cow Grass Band)
TTITLE15=Bole Weevil (Lewis Morgan)
TTITLE16=Funny Face (Donna Fargo)
TTITLE17=Rye Whisky (Jack Daniels)
TTITLE18=Tennesse Birdwalk (Jack and Misty)
TTITLE19=Hansome Molly (The Cow Grass Band)
TTITLE20=Your Foolish Pride (Sue Martin)
EXTD=YEAR: 1987 ID3G: 2
EXTT0=
EXTT1=
EXTT2=
EXTT3=
EXTT4=
EXTT5=
EXTT6=
EXTT7=
EXTT8=
EXTT9=
EXTT10=
EXTT11=
EXTT12=
EXTT13=
EXTT14=
EXTT15=
EXTT16=
EXTT17=
EXTT18=
EXTT19=
EXTT20=
PLAYORDER=
